<svg width="44" height="41" viewBox="0 0 44 41" fill="none" xmlns="http://www.w3.org/2000/svg">
<path d="M23.4985 0L3.52399 8.98142V22.153C1.39275 23.7246 0 26.2389 0 29.0798C0 33.8292 3.87612 37.6923 8.63853 37.6923C10.3182 37.6923 11.8832 37.2027 13.2097 36.3724L23.4985 41L43.4725 32.0164V8.98142L23.4985 0ZM23.4985 2.79691L37.2532 8.98142L23.4985 15.1681L9.74327 8.98142L23.4985 2.79691ZM8.63853 35.1426C5.28463 35.1426 2.55618 32.4218 2.55618 29.0798C2.55618 25.7352 5.28463 23.0143 8.63853 23.0143C11.9935 23.0143 14.722 25.7352 14.722 29.0798C14.7225 32.4218 11.9935 35.1426 8.63853 35.1426ZM40.9158 30.3704L23.4985 38.2036L15.3208 34.5264C16.5445 33.0424 17.2765 31.1432 17.2765 29.0798C17.2765 24.3283 13.4026 20.4652 8.63853 20.4652C7.74952 20.4652 6.88767 20.6 6.08017 20.8516V10.1307L23.4985 17.965L40.9158 10.1307V30.3704V30.3704Z" fill="black"/>
<path d="M12.014 31.4495L9.78645 29.2222L12.0151 26.9939L12.0159 26.9931C12.1501 26.8573 12.2251 26.6739 12.2245 26.483C12.2239 26.292 12.1477 26.1091 12.0127 25.9741C11.8777 25.8391 11.6948 25.763 11.5038 25.7624C11.3129 25.7618 11.1295 25.8367 10.9936 25.9709L10.9936 25.9709L10.9928 25.9716L8.76406 28.2L6.53531 25.9717L6.53531 25.9717L6.53418 25.9706C6.39819 25.837 6.21497 25.7626 6.02438 25.7635C5.8338 25.7643 5.65126 25.8404 5.51649 25.9752C5.38171 26.1099 5.30561 26.2924 5.30474 26.483C5.30388 26.6736 5.37833 26.8568 5.51188 26.9928L5.51187 26.9928L5.51299 26.9939L7.74168 29.2222L5.51299 31.4506L5.51299 31.4506L5.51188 31.4517C5.37833 31.5877 5.30388 31.7709 5.30474 31.9615C5.30561 32.1521 5.38171 32.3346 5.51649 32.4693C5.65126 32.6041 5.8338 32.6802 6.02438 32.681C6.21497 32.6819 6.39819 32.6075 6.53418 32.4739L6.53419 32.4739L6.53531 32.4728L8.76406 30.2445L10.9917 32.4717C10.9919 32.4719 10.9921 32.4721 10.9923 32.4723C11.0591 32.5401 11.1386 32.5941 11.2263 32.6311C11.3143 32.6683 11.4087 32.6876 11.5042 32.688C11.5997 32.6885 11.6943 32.67 11.7826 32.6337C11.8709 32.5973 11.9511 32.5439 12.0187 32.4763C12.0862 32.4088 12.1397 32.3286 12.176 32.2403C12.2123 32.152 12.2308 32.0574 12.2304 31.9619C12.23 31.8665 12.2106 31.772 12.1735 31.6841C12.1365 31.5964 12.0825 31.5169 12.0146 31.4501C12.0144 31.4499 12.0142 31.4497 12.014 31.4495Z" fill="black" stroke="black" stroke-width="0.35"/>
</svg>
