<svg width="99" height="99" viewBox="0 0 99 99" fill="none" xmlns="http://www.w3.org/2000/svg">
<path fill-rule="evenodd" clip-rule="evenodd" d="M98.64 49.32C98.64 76.5587 76.5587 98.64 49.32 98.64C22.0813 98.64 0 76.5587 0 49.32C0 22.0813 22.0813 0 49.32 0C76.5587 0 98.64 22.0813 98.64 49.32ZM48.9985 29L29.024 37.9814V51.153C26.8927 52.7246 25.5 55.2389 25.5 58.0798C25.5 62.8292 29.3761 66.6923 34.1385 66.6923C35.8182 66.6923 37.3832 66.2027 38.7097 65.3724L48.9985 70L68.9725 61.0164V37.9814L48.9985 29ZM48.9985 31.7969L62.7532 37.9814L48.9985 44.1681L35.2433 37.9814L48.9985 31.7969ZM34.1385 64.1426C30.7846 64.1426 28.0562 61.4218 28.0562 58.0798C28.0562 54.7352 30.7846 52.0143 34.1385 52.0143C37.4935 52.0143 40.222 54.7352 40.222 58.0798C40.2225 61.4218 37.4935 64.1426 34.1385 64.1426ZM66.4158 59.3704L48.9985 67.2036L40.8208 63.5264C42.0445 62.0424 42.7765 60.1432 42.7765 58.0798C42.7765 53.3283 38.9026 49.4652 34.1385 49.4652C33.2495 49.4652 32.3877 49.6 31.5802 49.8516V39.1307L48.9985 46.965L66.4158 39.1307V59.3704ZM37.5123 60.7522C37.4841 60.6855 37.443 60.6251 37.3914 60.5744L35.039 58.2223L37.3914 55.8702C37.4931 55.7672 37.5499 55.6282 37.5495 55.4835C37.549 55.3388 37.4913 55.2002 37.389 55.0979C37.2867 54.9956 37.148 54.9379 37.0033 54.9374C36.8586 54.937 36.7195 54.9938 36.6166 55.0954L34.2641 57.4475L31.9116 55.0955C31.8085 54.9943 31.6696 54.9378 31.5252 54.9385C31.3807 54.9392 31.2424 54.9968 31.1402 55.0989C31.0381 55.2011 30.9804 55.3394 30.9798 55.4838C30.9791 55.6283 31.0355 55.7671 31.1367 55.8702L33.4892 58.2223L31.1367 60.5744C31.0355 60.6774 30.9791 60.8163 30.9798 60.9607C30.9804 61.1051 31.0381 61.2435 31.1402 61.3456C31.2424 61.4477 31.3807 61.5054 31.5252 61.5061C31.6696 61.5067 31.8085 61.4503 31.9116 61.3491L34.2641 58.997L36.6166 61.3491C36.6673 61.4007 36.7277 61.4418 36.7944 61.4699C36.8611 61.4981 36.9326 61.5127 37.005 61.5131C37.0774 61.5134 37.1491 61.4994 37.216 61.4718C37.283 61.4443 37.3438 61.4038 37.3949 61.3526C37.4461 61.3015 37.4866 61.2407 37.5142 61.1737C37.5417 61.1068 37.5557 61.0351 37.5554 60.9628C37.5551 60.8904 37.5404 60.8188 37.5123 60.7522Z" fill="#0D78F2"/>
</svg>
